<svg xmlns="http://www.w3.org/2000/svg" viewBox="0 0 1600 720" aria-label="办公室植物、书架与墙面装饰资产">
<defs><linearGradient id="wood" x1="0" y1="0" x2="1" y2="1"><stop stop-color="#8d6650"/><stop offset="1" stop-color="#5f473b"/></linearGradient><linearGradient id="pot" x1="0" y1="0" x2="0" y2="1"><stop stop-color="#e0a377"/><stop offset="1" stop-color="#a9684e"/></linearGradient></defs>
<!-- shelf --> <g><rect x="72" y="36" width="392" height="14" rx="7" fill="url(#wood)"/><rect x="95" y="0" width="52" height="36" rx="5" fill="#6f8da1"/><rect x="154" y="7" width="43" height="29" rx="5" fill="#d0926c"/><rect x="204" y="1" width="59" height="35" rx="5" fill="#7f9e7f"/><rect x="272" y="6" width="39" height="30" rx="5" fill="#6c7f99"/><rect x="319" y="0" width="51" height="36" rx="5" fill="#d5b36f"/><rect x="378" y="4" width="41" height="32" rx="5" fill="#8c7083"/><path d="M420 35q10-40 25-47M430 35q28-25 39-16M424 22q-23-18-32-13" fill="none" stroke="#669878" stroke-width="9" stroke-linecap="round"/></g>
<!-- plant --> <g transform="translate(1325 274)"><path d="M82 155C74 94 82 43 98 0" fill="none" stroke="#5d8e70" stroke-width="10" stroke-linecap="round"/><path d="M91 67C50 58 28 40 16 15M91 88C132 76 154 58 168 35M88 45C59 26 52 8 53-10M101 28C126 12 140-4 141-20" fill="none" stroke="#6ba37a" stroke-width="13" stroke-linecap="round"/><g fill="#75ad83"><ellipse cx="38" cy="40" rx="42" ry="15" transform="rotate(26 38 40)"/><ellipse cx="145" cy="55" rx="43" ry="15" transform="rotate(-25 145 55)"/><ellipse cx="56" cy="8" rx="35" ry="13" transform="rotate(26 56 8)"/><ellipse cx="138" cy="4" rx="36" ry="13" transform="rotate(-22 138 4)"/></g><path d="M33 145Q91 124 151 145L140 222Q91 243 43 222Z" fill="url(#pot)" stroke="#925e49" stroke-width="6"/><path d="M45 163Q91 177 140 163" fill="none" stroke="#edb58b" stroke-width="5"/></g>
<!-- framed art --> <g transform="translate(1080 65) rotate(2)"><rect width="300" height="190" rx="12" fill="#f8f0df" stroke="#c6b99f" stroke-width="5"/><path d="M26 145Q83 74 151 122T272 79" fill="none" stroke="#5d8da1" stroke-width="9" stroke-linecap="round"/><circle cx="82" cy="67" r="25" fill="#e8b46d"/><path d="M34 147H271" stroke="#8b684f" stroke-width="5"/><text x="28" y="39" font-family="Arial,sans-serif" font-size="16" font-weight="700" fill="#557382" letter-spacing="3">GOOD WORK TODAY</text></g>
<!-- small wall clock --> <g transform="translate(940 86)"><circle cx="0" cy="0" r="46" fill="#f8f3e8" stroke="#b89c7f" stroke-width="6"/><circle r="4" fill="#6d5a4d"/><path d="M0-4V-27M0 0L21 13" stroke="#6d5a4d" stroke-width="5" stroke-linecap="round"/><path d="M-31-25L-26-21M31-25L26-21M-39 0H-33M39 0H33" stroke="#b89c7f" stroke-width="4" stroke-linecap="round"/></g>
</svg>
